HIERARCHY
ROOT hip
{
  OFFSET 0 90.174 2.4664
  CHANNELS 6 Xposition Yposition Zposition Zrotation Xrotation Yrotation
  JOINT abdomen
  {
    OFFSET 0 -1.186 -1.5018
    CHANNELS 6 Xposition Yposition Zposition Zrotation Xrotation Yrotation
    JOINT abdomen2
    {
      OFFSET 0 9.964 0.2134
      CHANNELS 6 Xposition Yposition Zposition Zrotation Xrotation Yrotation
      JOINT chest
      {
        OFFSET 0 13.134 -3.2573
        CHANNELS 6 Xposition Yposition Zposition Zrotation Xrotation Yrotation
        JOINT neck
        {
          OFFSET 0 20.686 -1.6905
          CHANNELS 6 Xposition Yposition Zposition Zrotation Xrotation Yrotation
          JOINT head
          {
            OFFSET 0 7.238 -0.1237
            CHANNELS 6 Xposition Yposition Zposition Zrotation Xrotation Yrotation
            End Site
            {
              OFFSET 0 0 0
            }
          }
        }
        JOINT lCollar
        {
          OFFSET 1.7069 20.075 5.0056
          CHANNELS 6 Xposition Yposition Zposition Zrotation Xrotation Yrotation
          JOINT lShldr
          {
            OFFSET 13.6458 -0.047 -4.849
            CHANNELS 6 Xposition Yposition Zposition Zrotation Xrotation Yrotation
            JOINT lForeArm
            {
              OFFSET 28.3255 -0.9759 2.2888
              CHANNELS 6 Xposition Yposition Zposition Zrotation Xrotation Yrotation
              JOINT lHand
              {
                OFFSET 22.1583 -0.53 10.8316
                CHANNELS 6 Xposition Yposition Zposition Zrotation Xrotation Yrotation
                JOINT lThumb1
                {
                  OFFSET 0.786 0.112 2.5817
                  CHANNELS 6 Xposition Yposition Zposition Zrotation Xrotation Yrotation
                  JOINT lThumb2
                  {
                    OFFSET 0.3601 -0.878 4.2331
                    CHANNELS 6 Xposition Yposition Zposition Zrotation Xrotation Yrotation
                    JOINT lThumb2_End
                    {
                      OFFSET 1.8127 -1.216 2.2227
                      CHANNELS 6 Xposition Yposition Zposition Zrotation Xrotation Yrotation
                      End Site
                      {
                        OFFSET 0.0181 -0.0122 0.0222
                      }
                    }
                  }
                }
                JOINT lCarpal1
                {
                  OFFSET 0.9571 1.114 1.7695
                  CHANNELS 6 Xposition Yposition Zposition Zrotation Xrotation Yrotation
                  JOINT lIndex1
                  {
                    OFFSET 4.1246 0.487 4.1451
                    CHANNELS 6 Xposition Yposition Zposition Zrotation Xrotation Yrotation
                    JOINT lIndex2
                    {
                      OFFSET 3.4052 -1.454 2.7682
                      CHANNELS 6 Xposition Yposition Zposition Zrotation Xrotation Yrotation
                      JOINT lIndex2_End
                      {
                        OFFSET 1.4531 -1.795 1.2713
                        CHANNELS 6 Xposition Yposition Zposition Zrotation Xrotation Yrotation
                        End Site
                        {
                          OFFSET 0.0145 -0.0179 0.0127
                        }
                      }
                    }
                  }
                  JOINT lMid1
                  {
                    OFFSET 5.6954 0.21 2.1184
                    CHANNELS 6 Xposition Yposition Zposition Zrotation Xrotation Yrotation
                    JOINT lMid2
                    {
                      OFFSET 3.9766 -1.54 2.3863
                      CHANNELS 6 Xposition Yposition Zposition Zrotation Xrotation Yrotation
                      JOINT lMid2_End
                      {
                        OFFSET 1.4042 -1.926 1.125
                        CHANNELS 6 Xposition Yposition Zposition Zrotation Xrotation Yrotation
                        End Site
                        {
                          OFFSET 0.014 -0.0193 0.0113
                        }
                      }
                    }
                  }
                }
                JOINT lCarpal2
                {
                  OFFSET 2.0956 0.66 -0.3894
                  CHANNELS 6 Xposition Yposition Zposition Zrotation Xrotation Yrotation
                  JOINT lRing1
                  {
                    OFFSET 5.0395 -0.09 2.4971
                    CHANNELS 6 Xposition Yposition Zposition Zrotation Xrotation Yrotation
                    JOINT lRing2
                    {
                      OFFSET 3.7921 -1.552 1.4806
                      CHANNELS 6 Xposition Yposition Zposition Zrotation Xrotation Yrotation
                      JOINT lRing2_End
                      {
                        OFFSET 1.4655 -1.808 0.9609
                        CHANNELS 6 Xposition Yposition Zposition Zrotation Xrotation Yrotation
                        End Site
                        {
                          OFFSET 0.0147 -0.0181 0.0096
                        }
                      }
                    }
                  }
                  JOINT lPinky1
                  {
                    OFFSET 4.9141 -1.269 0.3591
                    CHANNELS 6 Xposition Yposition Zposition Zrotation Xrotation Yrotation
                    JOINT lPinky2
                    {
                      OFFSET 3.1477 -1.685 0.8462
                      CHANNELS 6 Xposition Yposition Zposition Zrotation Xrotation Yrotation
                      JOINT lPinky2_End
                      {
                        OFFSET 0.8055 -1.585 0.7955
                        CHANNELS 6 Xposition Yposition Zposition Zrotation Xrotation Yrotation
                        End Site
                        {
                          OFFSET 0.0081 -0.0158 0.008
                        }
                      }
                    }
                  }
                }
              }
            }
          }
        }
        JOINT rCollar
        {
          OFFSET -1.7069 20.075 5.0056
          CHANNELS 6 Xposition Yposition Zposition Zrotation Xrotation Yrotation
          JOINT rShldr
          {
            OFFSET -13.6458 -0.047 -4.849
            CHANNELS 6 Xposition Yposition Zposition Zrotation Xrotation Yrotation
            JOINT rForeArm
            {
              OFFSET -28.3255 -0.9759 2.2888
              CHANNELS 6 Xposition Yposition Zposition Zrotation Xrotation Yrotation
              JOINT rHand
              {
                OFFSET -22.1583 -0.53 10.8316
                CHANNELS 6 Xposition Yposition Zposition Zrotation Xrotation Yrotation
                JOINT rThumb1
                {
                  OFFSET -0.786 0.112 2.5817
                  CHANNELS 6 Xposition Yposition Zposition Zrotation Xrotation Yrotation
                  JOINT rThumb2
                  {
                    OFFSET -0.3601 -0.878 4.2331
                    CHANNELS 6 Xposition Yposition Zposition Zrotation Xrotation Yrotation
                    JOINT rThumb2_End
                    {
                      OFFSET -1.8127 -1.216 2.2227
                      CHANNELS 6 Xposition Yposition Zposition Zrotation Xrotation Yrotation
                      End Site
                      {
                        OFFSET -0.0181 -0.0122 0.0222
                      }
                    }
                  }
                }
                JOINT rCarpal1
                {
                  OFFSET -0.9571 1.114 1.7695
                  CHANNELS 6 Xposition Yposition Zposition Zrotation Xrotation Yrotation
                  JOINT rIndex1
                  {
                    OFFSET -4.1246 0.487 4.1451
                    CHANNELS 6 Xposition Yposition Zposition Zrotation Xrotation Yrotation
                    JOINT rIndex2
                    {
                      OFFSET -3.4052 -1.454 2.7682
                      CHANNELS 6 Xposition Yposition Zposition Zrotation Xrotation Yrotation
                      JOINT rIndex2_End
                      {
                        OFFSET -1.4531 -1.795 1.2713
                        CHANNELS 6 Xposition Yposition Zposition Zrotation Xrotation Yrotation
                        End Site
                        {
                          OFFSET -0.0145 -0.018 0.0127
                        }
                      }
                    }
                  }
                  JOINT rMid1
                  {
                    OFFSET -5.6954 0.21 2.1184
                    CHANNELS 6 Xposition Yposition Zposition Zrotation Xrotation Yrotation
                    JOINT rMid2
                    {
                      OFFSET -3.9766 -1.54 2.3863
                      CHANNELS 6 Xposition Yposition Zposition Zrotation Xrotation Yrotation
                      JOINT rMid2_End
                      {
                        OFFSET -1.4042 -1.926 1.125
                        CHANNELS 6 Xposition Yposition Zposition Zrotation Xrotation Yrotation
                        End Site
                        {
                          OFFSET -0.014 -0.0193 0.0113
                        }
                      }
                    }
                  }
                }
                JOINT rCarpal2
                {
                  OFFSET -2.0956 0.66 -0.3894
                  CHANNELS 6 Xposition Yposition Zposition Zrotation Xrotation Yrotation
                  JOINT rRing1
                  {
                    OFFSET -5.0395 -0.09 2.4971
                    CHANNELS 6 Xposition Yposition Zposition Zrotation Xrotation Yrotation
                    JOINT rRing2
                    {
                      OFFSET -3.7921 -1.552 1.4806
                      CHANNELS 6 Xposition Yposition Zposition Zrotation Xrotation Yrotation
                      JOINT rRing2_End
                      {
                        OFFSET -1.4655 -1.808 0.9609
                        CHANNELS 6 Xposition Yposition Zposition Zrotation Xrotation Yrotation
                        End Site
                        {
                          OFFSET -0.0147 -0.0181 0.0096
                        }
                      }
                    }
                  }
                  JOINT rPinky1
                  {
                    OFFSET -4.9141 -1.269 0.3592
                    CHANNELS 6 Xposition Yposition Zposition Zrotation Xrotation Yrotation
                    JOINT rPinky2
                    {
                      OFFSET -3.1477 -1.685 0.8462
                      CHANNELS 6 Xposition Yposition Zposition Zrotation Xrotation Yrotation
                      JOINT rPinky2_End
                      {
                        OFFSET -0.8055 -1.585 0.7955
                        CHANNELS 6 Xposition Yposition Zposition Zrotation Xrotation Yrotation
                        End Site
                        {
                          OFFSET -0.0081 -0.0158 0.008
                        }
                      }
                    }
                  }
                }
              }
            }
          }
        }
      }
    }
  }
  JOINT lThigh
  {
    OFFSET 8.367 -8.2066 0.5982
    CHANNELS 6 Xposition Yposition Zposition Zrotation Xrotation Yrotation
    JOINT lShin
    {
      OFFSET 2.1923 -43.463 -0.4932
      CHANNELS 6 Xposition Yposition Zposition Zrotation Xrotation Yrotation
      JOINT lFoot
      {
        OFFSET 0.7333 -45.8593 -2.6451
        CHANNELS 6 Xposition Yposition Zposition Zrotation Xrotation Yrotation
        End Site
        {
          OFFSET 2.6618 -4.2699 12.3931
        }
      }
    }
  }
  JOINT rThigh
  {
    OFFSET -8.367 -8.2066 0.5982
    CHANNELS 6 Xposition Yposition Zposition Zrotation Xrotation Yrotation
    JOINT rShin
    {
      OFFSET -2.1923 -43.463 -0.4931
      CHANNELS 6 Xposition Yposition Zposition Zrotation Xrotation Yrotation
      JOINT rFoot
      {
        OFFSET -0.7333 -45.8593 -2.6451
        CHANNELS 6 Xposition Yposition Zposition Zrotation Xrotation Yrotation
        End Site
        {
          OFFSET -2.6618 -4.2699 12.3931
        }
      }
    }
  }
}
MOTION
Frames:	4
Frame Time:	0.0333333
0 90.174 2.4664 0 0 -0 0 -1.186 -1.5018 0 0 -0 0 9.964 0.2134 0 0 -0 0 13.134 -3.2573 0 0 -0 0 20.686 -1.6905 0 0 -0 0 7.238 -0.1237 0 0 -0 1.7069 20.075 5.0056 0 0 -0 13.6458 -0.047 -4.849 1.66051 0.0835086 5.75766 28.3255 -0.9759 2.2888 -0.0175111 0.895433 15.7816 22.1583 -0.53 10.8316 7.95139e-016 -1.98785e-016 -0 0.786 0.112 2.5817 5.46658e-016 -3.97569e-016 -0 0.3601 -0.878 4.2331 5.96354e-016 0 -0 1.8127 -1.216 2.2227 3.97569e-016 1.98785e-016 9.54166e-015 0.9571 1.114 1.7695 1.49089e-016 -3.97569e-016 -0 4.1246 0.487 4.1451 6.4605e-016 0 3.18055e-015 3.4052 -1.454 2.7682 5.96354e-016 0 3.18055e-015 1.4531 -1.795 1.2713 8.94531e-016 -1.98785e-016 6.36111e-015 5.6954 0.21 2.1184 6.4605e-016 0 3.18055e-015 3.9766 -1.54 2.3863 5.96354e-016 0 3.18055e-015 1.4042 -1.926 1.125 8.94531e-016 -1.98785e-016 6.36111e-015 2.0956 0.66 -0.3894 1.49089e-016 -3.97569e-016 -0 5.0395 -0.09 2.4971 6.4605e-016 0 3.18055e-015 3.7921 -1.552 1.4806 5.96354e-016 0 3.18055e-015 1.4655 -1.808 0.9609 8.94531e-016 -1.98785e-016 6.36111e-015 4.9141 -1.269 0.3591 6.4605e-016 0 3.18055e-015 3.1477 -1.685 0.8462 5.96354e-016 0 3.18055e-015 0.8055 -1.585 0.7955 8.94531e-016 -1.98785e-016 6.36111e-015 -1.7069 20.075 5.0056 0 0 -0 -13.6458 -0.047 -4.849 -1.4496 0.0636048 -5.0245 -28.3255 -0.9759 2.2888 -1.74811 1.20616 -16.8394 -22.1583 -0.53 10.8316 -1.19271e-015 1.98785e-016 -3.18055e-015 -0.786 0.112 2.5817 -3.97569e-016 1.98785e-016 -3.18055e-015 -0.3601 -0.878 4.2331 -2.98177e-016 1.98785e-016 -3.18055e-015 -1.8127 -1.216 2.2227 -2.98177e-016 3.97569e-016 -0 -0.9571 1.114 1.7695 4.96962e-016 0 -6.36111e-015 -4.1246 0.487 4.1451 -9.93923e-017 3.97569e-016 -0 -3.4052 -1.454 2.7682 -8.94531e-016 5.96354e-016 -0 -1.4531 -1.795 1.2713 -3.97569e-016 3.97569e-016 -0 -5.6954 0.21 2.1184 -9.93923e-017 3.97569e-016 -0 -3.9766 -1.54 2.3863 -8.94531e-016 5.96354e-016 -0 -1.4042 -1.926 1.125 -3.97569e-016 3.97569e-016 -0 -2.0956 0.66 -0.3894 4.96962e-016 0 -6.36111e-015 -5.0395 -0.09 2.4971 -9.93923e-017 3.97569e-016 -0 -3.7921 -1.552 1.4806 -8.94531e-016 5.96354e-016 -0 -1.4655 -1.808 0.9609 -3.97569e-016 3.97569e-016 -0 -4.9141 -1.269 0.3592 -9.93923e-017 3.97569e-016 -0 -3.1477 -1.685 0.8462 -8.94531e-016 5.96354e-016 -0 -0.8055 -1.585 0.7955 -3.97569e-016 3.97569e-016 -0 8.367 -8.2066 0.5982 -4.66115 -1.03232 0.120763 2.1923 -43.463 -0.4932 0.00990601 1.55097 0.177175 0.7333 -45.8593 -2.6451 4.65196 -0.54114 -0.255042 -8.367 -8.2066 0.5982 4.66115 -1.03222 -0.120763 -2.1923 -43.463 -0.4931 -0.00990459 1.5509 -0.177176 -0.7333 -45.8593 -2.6451 -4.65196 -0.541171 0.255041 
-2.95295 39.4842 39.7386 132.698 -66.6673 -0.476482 -3.55271e-015 -1.186 -1.5018 -0.224478 5.58567 -0.120394 0 9.964 0.2134 -0.440295 11.1718 -0.220228 -3.55271e-015 13.134 -3.2573 -0.440293 11.1718 -0.220247 0 20.686 -1.6905 0.000647012 6.66031 -5.16111e-005 -3.55271e-015 7.238 -0.1237 -1.04306e-005 -47.4632 -7.94301e-006 1.7069 20.075 5.0056 20.9555 -28.3712 6.17996 13.6458 -0.047 -4.849 -36.4316 0.706459 -35.5711 28.3255 -0.9759 2.2888 -76.1967 -60.2826 -106.653 22.1583 -0.53 10.8316 -25.9104 7.19292 -11.0491 0.786 0.112 2.5817 2.18663e-015 7.95139e-016 -0 0.3601 -0.878 4.2331 8.34896e-015 2.38542e-015 -1.59028e-015 1.8127 -1.216 2.2227 5.76476e-015 3.18055e-015 -3.18055e-015 0.9571 1.114 1.7695 -7.7526e-015 -7.95139e-016 1.59028e-015 4.1246 0.487 4.1451 -4.96962e-015 7.95139e-016 7.95139e-015 3.4052 -1.454 2.7682 8.15017e-015 1.59028e-015 -0 1.4531 -1.795 1.2713 4.77083e-015 1.59028e-015 -0 5.6954 0.21 2.1184 -4.96962e-015 7.95139e-016 7.95139e-015 3.9766 -1.54 2.3863 8.15017e-015 1.59028e-015 -0 1.4042 -1.926 1.125 4.77083e-015 1.59028e-015 -0 2.0956 0.66 -0.3894 -7.7526e-015 -7.95139e-016 1.59028e-015 5.0395 -0.09 2.4971 -4.96962e-015 7.95139e-016 7.95139e-015 3.7921 -1.552 1.4806 8.15017e-015 1.59028e-015 -0 1.4655 -1.808 0.9609 4.77083e-015 1.59028e-015 -0 4.9141 -1.269 0.3591 -4.96962e-015 7.95139e-016 7.95139e-015 3.1477 -1.685 0.8462 8.15017e-015 1.59028e-015 -0 0.8055 -1.585 0.7955 4.77083e-015 1.59028e-015 -0 -1.7069 20.075 5.0056 -22.1391 -28.166 -7.73344 -13.6458 -0.047 -4.849 36.9086 1.3044 36.017 -28.3255 -0.9759 2.2888 77.0004 -62.5496 107.193 -22.1583 -0.53 10.8316 25.3098 6.45038 11.9633 -0.786 0.112 2.5817 2.29e-007 1.40459e-006 -1.2723e-006 -0.3601 -0.878 4.2331 1.73579e-007 6.14751e-007 -1.57968e-006 -1.8127 -1.216 2.2227 1.73579e-007 6.14751e-007 -1.57968e-006 -0.9571 1.114 1.7695 -7.95139e-015 0 -0 -4.1246 0.487 4.1451 2.29e-007 1.40459e-006 -1.2723e-006 -3.4052 -1.454 2.7682 1.73579e-007 6.14751e-007 -1.57968e-006 -1.4531 -1.795 1.2713 1.73579e-007 6.14751e-007 -1.57968e-006 -5.6954 0.21 2.1184 2.29e-007 1.40459e-006 -1.2723e-006 -3.9766 -1.54 2.3863 1.73579e-007 6.14751e-007 -1.57968e-006 -1.4042 -1.926 1.125 1.73579e-007 6.14751e-007 -1.57968e-006 -2.0956 0.66 -0.3894 -7.95139e-015 0 -0 -5.0395 -0.09 2.4971 2.29e-007 1.40459e-006 -1.2723e-006 -3.7921 -1.552 1.4806 1.73579e-007 6.14751e-007 -1.57968e-006 -1.4655 -1.808 0.9609 1.73579e-007 6.14751e-007 -1.57968e-006 -4.9141 -1.269 0.3592 2.29e-007 1.40459e-006 -1.2723e-006 -3.1477 -1.685 0.8462 1.73579e-007 6.14751e-007 -1.57968e-006 -0.8055 -1.585 0.7955 1.73579e-007 6.14751e-007 -1.57968e-006 8.367 -8.2066 0.5982 40.4771 -50.4631 30.4595 2.1923 -43.463 -0.4932 -21.6457 59.8196 27.0926 0.7333 -45.8593 -2.6451 10.6929 33.5361 -1.10541 -8.367 -8.2066 0.5982 -47.8245 -52.9864 -37.4798 -2.1923 -43.463 -0.4931 21.5951 59.9333 -27.638 -0.7333 -45.8593 -2.6451 -11.9998 35.2073 1.36444 
-0.582088 26.2002 60.7949 15.3856 -83.3257 -177.645 0 -1.186 -1.5018 -0.300447 8.08878 -0.205991 8.88178e-016 9.964 0.2134 -0.580003 16.1786 -0.374317 0 13.134 -3.2573 -0.580003 16.1786 -0.374318 8.88178e-016 20.686 -1.6905 -3.94192e-005 9.65838 7.38928e-006 -4.44089e-016 7.238 -0.1237 3.81789e-007 -68.6117 3.4597e-006 1.7069 20.075 5.0056 32.9531 -40.8101 10.1578 13.6458 -0.047 -4.849 -53.0379 0.109024 -54.0788 28.3255 -0.9759 2.2888 -86.7334 -19.1208 -125.584 22.1583 -0.53 10.8316 -38.2139 10.2233 -14.5861 0.786 0.112 2.5817 8.82781e-032 -3.18055e-015 1.59028e-015 0.3601 -0.878 4.2331 9.54166e-015 -2.38542e-015 3.18055e-015 1.8127 -1.216 2.2227 -3.18055e-015 -5.56597e-015 -0 0.9571 1.114 1.7695 -0 -7.95139e-016 -0 4.1246 0.487 4.1451 9.54166e-015 1.27222e-014 1.11319e-014 3.4052 -1.454 2.7682 9.54166e-015 -7.95139e-016 -0 1.4531 -1.795 1.2713 -3.18055e-015 2.38542e-015 -0 5.6954 0.21 2.1184 9.54166e-015 1.27222e-014 1.11319e-014 3.9766 -1.54 2.3863 9.54166e-015 -7.95139e-016 -0 1.4042 -1.926 1.125 -3.18055e-015 2.38542e-015 -0 2.0956 0.66 -0.3894 -0 -7.95139e-016 -0 5.0395 -0.09 2.4971 9.54166e-015 1.27222e-014 1.11319e-014 3.7921 -1.552 1.4806 9.54166e-015 -7.95139e-016 -0 1.4655 -1.808 0.9609 -3.18055e-015 2.38542e-015 -0 4.9141 -1.269 0.3591 9.54166e-015 1.27222e-014 1.11319e-014 3.1477 -1.685 0.8462 9.54166e-015 -7.95139e-016 -0 0.8055 -1.585 0.7955 -3.18055e-015 2.38542e-015 -0 -1.7069 20.075 5.0056 -35.2159 -40.3746 -12.6951 -13.6458 -0.047 -4.849 53.4141 0.755437 54.4102 -28.3255 -0.9759 2.2888 87.5869 -21.0939 125.725 -22.1583 -0.53 10.8316 37.3874 9.27034 15.917 -0.786 0.112 2.5817 -9.93594e-007 4.31314e-006 -5.99876e-007 -0.3601 -0.878 4.2331 3.18055e-015 -7.95139e-016 3.18055e-015 -1.8127 -1.216 2.2227 1.65977e-006 2.65337e-006 6.18685e-007 -0.9571 1.114 1.7695 -3.18055e-015 7.15625e-015 3.18055e-015 -4.1246 0.487 4.1451 -9.93594e-007 4.31314e-006 -5.99876e-007 -3.4052 -1.454 2.7682 8.82781e-032 7.95139e-016 -6.36111e-015 -1.4531 -1.795 1.2713 1.65977e-006 2.65337e-006 6.18685e-007 -5.6954 0.21 2.1184 -9.93594e-007 4.31314e-006 -5.99876e-007 -3.9766 -1.54 2.3863 8.82781e-032 7.95139e-016 -6.36111e-015 -1.4042 -1.926 1.125 1.65977e-006 2.65337e-006 6.18685e-007 -2.0956 0.66 -0.3894 -3.18055e-015 7.15625e-015 3.18055e-015 -5.0395 -0.09 2.4971 -9.93594e-007 4.31314e-006 -5.99876e-007 -3.7921 -1.552 1.4806 8.82781e-032 7.95139e-016 -6.36111e-015 -1.4655 -1.808 0.9609 1.65977e-006 2.65337e-006 6.18685e-007 -4.9141 -1.269 0.3592 -9.93594e-007 4.31314e-006 -5.99876e-007 -3.1477 -1.685 0.8462 8.82781e-032 7.95139e-016 -6.36111e-015 -0.8055 -1.585 0.7955 1.65977e-006 2.65337e-006 6.18685e-007 8.367 -8.2066 0.5982 94.7209 -63.2642 74.1044 2.1923 -43.463 -0.4932 -94.9249 72.28 99.9308 0.7333 -45.8593 -2.6451 15.3844 48.3313 -1.35964 -8.367 -8.2066 0.5982 -105.32 -59.0311 -81.2116 -2.1923 -43.463 -0.4931 96.3657 72.2597 -100.527 -0.7333 -45.8593 -2.6451 -14.5624 48.1727 1.53076 
-0.215552 29.0461 55.6583 89.3125 -89.7452 -90.4204 0 -1.186 -1.5018 -0.284218 7.50925 -0.185816 0 9.964 0.2134 -0.550821 15.0195 -0.338093 2.22045e-016 13.134 -3.2573 -0.550821 15.0194 -0.338093 0 20.686 -1.6905 -3.40223e-006 8.99164 -3.87758e-006 -2.22045e-016 7.238 -0.1237 3.89265e-007 -63.4457 1.51294e-007 1.7069 20.075 5.0056 30.0515 -37.9341 8.51507 13.6458 -0.047 -4.849 -49.1242 -0.181143 -49.8013 28.3255 -0.9759 2.2888 -87.3617 -28.8129 -125.015 22.1583 -0.53 10.8316 -35.7059 9.78944 -13.9758 0.786 0.112 2.5817 -1.36546e-006 -8.22658e-007 -4.46999e-007 0.3601 -0.878 4.2331 1.36546e-006 8.22658e-007 4.46999e-007 1.8127 -1.216 2.2227 -1.59028e-015 -7.95139e-016 6.36111e-015 0.9571 1.114 1.7695 -3.08973e-031 -5.56597e-015 -3.18055e-015 4.1246 0.487 4.1451 -1.36546e-006 -8.22658e-007 -4.46999e-007 3.4052 -1.454 2.7682 1.36546e-006 8.22658e-007 4.46999e-007 1.4531 -1.795 1.2713 0 1.59028e-015 -0 5.6954 0.21 2.1184 -1.36546e-006 -8.22658e-007 -4.46999e-007 3.9766 -1.54 2.3863 1.36546e-006 8.22658e-007 4.46999e-007 1.4042 -1.926 1.125 0 1.59028e-015 -0 2.0956 0.66 -0.3894 -3.08973e-031 -5.56597e-015 -3.18055e-015 5.0395 -0.09 2.4971 -1.36546e-006 -8.22658e-007 -4.46999e-007 3.7921 -1.552 1.4806 1.36546e-006 8.22658e-007 4.46999e-007 1.4655 -1.808 0.9609 0 1.59028e-015 -0 4.9141 -1.269 0.3591 -1.36546e-006 -8.22658e-007 -4.46999e-007 3.1477 -1.685 0.8462 1.36546e-006 8.22658e-007 4.46999e-007 0.8055 -1.585 0.7955 0 1.59028e-015 -0 -1.7069 20.075 5.0056 -31.9117 -37.5858 -10.7175 -13.6458 -0.047 -4.849 49.5153 0.46541 50.1886 -28.3255 -0.9759 2.2888 88.3076 -30.7963 125.367 -22.1583 -0.53 10.8316 34.9577 8.91804 15.1487 -0.786 0.112 2.5817 4.31535e-006 1.21833e-006 1.79391e-006 -0.3601 -0.878 4.2331 1.54851e-006 2.76684e-006 8.80842e-007 -1.8127 -1.216 2.2227 7.08219e-006 -3.30176e-007 2.70699e-006 -0.9571 1.114 1.7695 4.77083e-015 -2.38542e-015 6.36111e-015 -4.1246 0.487 4.1451 4.31535e-006 1.21833e-006 1.79391e-006 -3.4052 -1.454 2.7682 1.54851e-006 2.76684e-006 8.80842e-007 -1.4531 -1.795 1.2713 7.08219e-006 -3.30176e-007 2.70699e-006 -5.6954 0.21 2.1184 4.31535e-006 1.21833e-006 1.79391e-006 -3.9766 -1.54 2.3863 1.54851e-006 2.76684e-006 8.80842e-007 -1.4042 -1.926 1.125 7.08219e-006 -3.30176e-007 2.70699e-006 -2.0956 0.66 -0.3894 4.77083e-015 -2.38542e-015 6.36111e-015 -5.0395 -0.09 2.4971 4.31535e-006 1.21833e-006 1.79391e-006 -3.7921 -1.552 1.4806 1.54851e-006 2.76684e-006 8.80842e-007 -1.4655 -1.808 0.9609 7.08219e-006 -3.30176e-007 2.70699e-006 -4.9141 -1.269 0.3592 4.31535e-006 1.21833e-006 1.79391e-006 -3.1477 -1.685 0.8462 1.54851e-006 2.76684e-006 8.80842e-007 -0.8055 -1.585 0.7955 7.08219e-006 -3.30176e-007 2.70699e-006 8.367 -8.2066 0.5982 79.4013 -62.0958 61.3725 2.1923 -43.463 -0.4932 -74.0355 72.9378 79.2448 0.7333 -45.8593 -2.6451 14.3165 44.5027 -1.27647 -8.367 -8.2066 0.5982 -90.4846 -59.8039 -70.2817 -2.1923 -43.463 -0.4931 73.5236 72.9589 -78.621 -0.7333 -45.8593 -2.6451 -14.2978 44.8646 1.38116 
